<?xml version="1.0" encoding="utf-8"?>
<!-- Generator: Adobe Illustrator 25.3.1, SVG Export Plug-In . SVG Version: 6.00 Build 0)  -->
<!DOCTYPE svg PUBLIC "-//W3C//DTD SVG 1.1//EN" "http://www.w3.org/Graphics/SVG/1.1/DTD/svg11.dtd" [
	<!ENTITY ns_extend "http://ns.adobe.com/Extensibility/1.0/">
	<!ENTITY ns_ai "http://ns.adobe.com/AdobeIllustrator/10.0/">
	<!ENTITY ns_graphs "http://ns.adobe.com/Graphs/1.0/">
	<!ENTITY ns_vars "http://ns.adobe.com/Variables/1.0/">
	<!ENTITY ns_imrep "http://ns.adobe.com/ImageReplacement/1.0/">
	<!ENTITY ns_sfw "http://ns.adobe.com/SaveForWeb/1.0/">
	<!ENTITY ns_custom "http://ns.adobe.com/GenericCustomNamespace/1.0/">
	<!ENTITY ns_adobe_xpath "http://ns.adobe.com/XPath/1.0/">
]>
<svg version="1.1" id="Слой_1" xmlns:x="&ns_extend;" xmlns:i="&ns_ai;" xmlns:graph="&ns_graphs;"
	 xmlns="http://www.w3.org/2000/svg" xmlns:xlink="http://www.w3.org/1999/xlink" x="0px" y="0px" viewBox="0 0 270 270"
	 style="enable-background:new 0 0 270 270;" xml:space="preserve">
<style type="text/css">
	.st0{fill:#FF4500;}
	.st1{fill:#FFFFFF;}
	.st2{display:none;}
	.st3{display:inline;fill:none;stroke:#D8D8D8;stroke-width:0.5;stroke-miterlimit:10;}
	.st4{enable-background:new    ;}
</style>
<metadata>
	<sfw  xmlns="&ns_sfw;">
		<slices></slices>
		<sliceSourceBounds  bottomLeftOrigin="true" height="373.4" width="342.3" x="-56.2" y="4.7"></sliceSourceBounds>
	</sfw>
</metadata>
<g id="Artwork">
	<g>
		<circle class="st0" cx="135" cy="99.1" r="85.5"/>
		<path class="st1" d="M192,99.1c0-6.9-5.6-12.5-12.5-12.5c-3.4,0-6.4,1.3-8.6,3.5c-8.5-6.1-20.3-10.1-33.3-10.6l5.7-26.7l18.5,3.9
			c0.2,4.7,4.1,8.5,8.9,8.5c4.9,0,8.9-4,8.9-8.9c0-4.9-4-8.9-8.9-8.9c-3.5,0-6.5,2-7.9,5L142.1,48c-0.6-0.1-1.2,0-1.7,0.3
			s-0.8,0.8-1,1.4l-6.3,29.8c-13.3,0.4-25.2,4.3-33.8,10.6c-2.2-2.1-5.3-3.5-8.6-3.5c-6.9,0-12.5,5.6-12.5,12.5
			c0,5.1,3,9.4,7.4,11.4c-0.2,1.2-0.3,2.5-0.3,3.8c0,19.2,22.3,34.7,49.9,34.7s49.9-15.5,49.9-34.7c0-1.3-0.1-2.5-0.3-3.7
			C188.9,108.6,192,104.2,192,99.1z M106.5,108c0-4.9,4-8.9,8.9-8.9s8.9,4,8.9,8.9s-4,8.9-8.9,8.9S106.5,112.9,106.5,108z
			 M156.2,131.5c-6.1,6.1-17.7,6.5-21.1,6.5c-3.4,0-15.1-0.5-21.1-6.5c-0.9-0.9-0.9-2.4,0-3.3c0.9-0.9,2.4-0.9,3.3,0
			c3.8,3.8,12,5.2,17.9,5.2s14-1.4,17.9-5.2c0.9-0.9,2.4-0.9,3.3,0C157.1,129.2,157.1,130.6,156.2,131.5z M154.6,116.9
			c-4.9,0-8.9-4-8.9-8.9s4-8.9,8.9-8.9s8.9,4,8.9,8.9S159.5,116.9,154.6,116.9z"/>
	</g>
</g>
<g id="Spacing_Guide" class="st2">
	<rect x="-95" y="-107.8" class="st3" width="85.4" height="85.4"/>
	<rect x="-95" y="-107.8" class="st3" width="341.8" height="85.4"/>
	<rect x="-95" y="148.5" class="st3" width="341.8" height="85.4"/>
	<rect x="-95" y="-107.8" class="st3" width="85.4" height="341.8"/>
	<rect x="161.4" y="-107.8" class="st3" width="85.4" height="341.8"/>
</g>
<g class="st4">
	<path class="st0" d="M24.8,242l13.9-18.6L27.3,208c-0.8-1-1.1-2.1-1.1-3.1c0-1.5,0.5-2.8,1.5-3.7c1-0.9,2.3-1.4,3.8-1.4
		c1.8,0,3.3,0.9,4.5,2.6l8.7,12.3l8.7-12.3c1.2-1.7,2.7-2.6,4.5-2.6c1.6,0,2.8,0.5,3.8,1.4c1,0.9,1.5,2.2,1.5,3.7
		c0,1.1-0.4,2.1-1.1,3.1l-11.3,15.4L64.7,242c0.8,1.1,1.2,2.3,1.2,3.6c0,1.5-0.5,2.7-1.5,3.6c-1,0.9-2.3,1.3-3.8,1.3
		c-1.8,0-3.2-0.8-4.3-2.3l-11.5-16l-11.5,16c-1.1,1.5-2.5,2.3-4.3,2.3c-1.5,0-2.8-0.4-3.8-1.3s-1.5-2.1-1.5-3.6
		C23.6,244.2,24,243,24.8,242z"/>
	<path d="M69,259.7V218c0-1.5,0.5-2.9,1.4-4c0.9-1.1,2.1-1.6,3.7-1.6c2.7,0,4.4,1.4,5.1,4.2c1.9-3.1,5.1-4.6,9.6-4.6
		c5.2,0,9.3,2.1,12.3,6.4c2.7,3.8,4,8.3,4,13.6c0,5.1-1.5,9.4-4.5,13.1c-3.2,3.9-7.3,5.9-12.1,5.9c-3.4,0-6.5-1.2-9.2-3.5v12.3
		c0,1.6-0.4,2.9-1.3,3.9c-0.9,1.1-2.2,1.6-3.8,1.6c-1.5,0-2.8-0.6-3.7-1.7C69.5,262.6,69,261.3,69,259.7z M79.1,231.1
		c0,2.7,0.6,5.1,1.8,7c1.4,2.3,3.5,3.5,6,3.5c2.5,0,4.5-1.1,5.9-3.3c1.3-1.9,1.9-4.2,1.9-6.8c0-2.5-0.7-4.8-2-6.8
		c-1.5-2.3-3.4-3.5-5.9-3.5c-2.5,0-4.5,1.1-6,3.2C79.7,226.2,79.1,228.5,79.1,231.1z"/>
	<path d="M109.1,244.8v-43.1c0-1.5,0.5-2.9,1.4-4c0.9-1.1,2.1-1.6,3.7-1.6c1.6,0,2.8,0.5,3.7,1.6c0.9,1.1,1.3,2.4,1.3,4v43.1
		c0,1.6-0.4,2.9-1.3,4c-0.9,1.1-2.2,1.6-3.8,1.6c-1.5,0-2.7-0.5-3.7-1.6C109.5,247.7,109.1,246.4,109.1,244.8z"/>
	<path d="M141.4,212c5.3,0,9.6,2,13.1,5.9c3.3,3.8,5,8.3,5,13.6c0,5.4-1.6,9.9-4.9,13.6c-3.4,3.9-7.8,5.8-13.2,5.8
		c-5.4,0-9.7-1.9-13.2-5.7c-3.3-3.7-4.9-8.2-4.9-13.7c0-5.3,1.7-9.8,5-13.6C131.8,213.9,136.1,212,141.4,212z M141.4,221.2
		c-2.6,0-4.6,1.1-6.1,3.4c-1.3,1.9-1.9,4.2-1.9,6.9c0,2.7,0.6,5,1.9,6.9c1.5,2.1,3.5,3.2,6,3.2c2.5,0,4.5-1.1,6-3.3
		c1.3-2,2-4.2,2-6.9c0-4.4-1.4-7.5-4.3-9.4C144,221.5,142.8,221.2,141.4,221.2z"/>
	<path d="M163.6,244.8v-27.4c0-1.5,0.5-2.7,1.5-3.7c1-0.9,2.2-1.4,3.7-1.4c3.3,0,4.9,1.4,4.9,4.2h0.1c1.9-2.8,4.2-4.2,7.1-4.2
		c1.5,0,2.7,0.5,3.6,1.6c0.8,1,1.3,2.3,1.3,3.8c0,1.4-0.7,2.5-2.1,3.3c-0.9,0.3-2.2,0.9-3.9,1.6c-1.8,0.8-3.2,1.6-4.2,2.5
		c-1.3,1.1-1.9,2.5-1.9,4.3v15.4c0,1.6-0.4,2.9-1.3,4c-0.9,1.1-2.2,1.6-3.8,1.6c-1.5,0-2.7-0.5-3.7-1.6
		C164,247.7,163.6,246.4,163.6,244.8z"/>
	<path d="M216.6,234.8h-21.5c0.3,2.3,1.4,4.1,3.2,5.4c1.8,1.3,3.9,1.9,6.3,1.9c1.5,0,3.2-0.4,4.8-1.1c0.6-0.3,2-1.1,4.4-2.3
		c0.8-0.4,1.5-0.6,2.2-0.6c1.1,0,2.1,0.4,2.9,1.3s1.2,1.9,1.2,3c0,2.6-2.2,4.7-6.6,6.5c-3.5,1.4-6.8,2.1-9.9,2.1
		c-5.6,0-10.1-1.8-13.6-5.5c-3.5-3.7-5.3-8.3-5.3-13.9c0-5.3,1.7-9.9,5-13.6c3.5-3.9,7.8-5.9,13.1-5.9c3.8,0,7.2,1.1,10.3,3.3
		c3,2.2,5.2,5,6.6,8.6c0.8,2.1,1.3,4.3,1.3,6.4C221,233.3,219.6,234.8,216.6,234.8z M194.9,228.1h16c-0.3-2.3-1.1-4.2-2.5-5.6
		c-1.4-1.4-3.2-2.1-5.5-2.1c-2.2,0-4.1,0.7-5.5,2.2S195.2,225.8,194.9,228.1z"/>
	<path d="M224.5,244.8v-27.4c0-1.5,0.5-2.7,1.5-3.7c1-0.9,2.2-1.4,3.7-1.4c3.3,0,4.9,1.4,4.9,4.2h0.1c1.9-2.8,4.2-4.2,7.1-4.2
		c1.5,0,2.7,0.5,3.6,1.6c0.8,1,1.3,2.3,1.3,3.8c0,1.4-0.7,2.5-2.1,3.3c-0.9,0.3-2.2,0.9-3.9,1.6c-1.8,0.8-3.2,1.6-4.2,2.5
		c-1.3,1.1-1.9,2.5-1.9,4.3v15.4c0,1.6-0.4,2.9-1.3,4c-0.9,1.1-2.2,1.6-3.8,1.6c-1.5,0-2.7-0.5-3.7-1.6
		C224.9,247.7,224.5,246.4,224.5,244.8z"/>
</g>
</svg>
