<?xml version="1.0" encoding="utf-8"?>
<!-- Generator: Adobe Illustrator 25.3.1, SVG Export Plug-In . SVG Version: 6.00 Build 0)  -->
<!DOCTYPE svg PUBLIC "-//W3C//DTD SVG 1.1//EN" "http://www.w3.org/Graphics/SVG/1.1/DTD/svg11.dtd" [
	<!ENTITY ns_extend "http://ns.adobe.com/Extensibility/1.0/">
	<!ENTITY ns_ai "http://ns.adobe.com/AdobeIllustrator/10.0/">
	<!ENTITY ns_graphs "http://ns.adobe.com/Graphs/1.0/">
	<!ENTITY ns_vars "http://ns.adobe.com/Variables/1.0/">
	<!ENTITY ns_imrep "http://ns.adobe.com/ImageReplacement/1.0/">
	<!ENTITY ns_sfw "http://ns.adobe.com/SaveForWeb/1.0/">
	<!ENTITY ns_custom "http://ns.adobe.com/GenericCustomNamespace/1.0/">
	<!ENTITY ns_adobe_xpath "http://ns.adobe.com/XPath/1.0/">
]>
<svg version="1.1" id="Слой_1" xmlns:x="&ns_extend;" xmlns:i="&ns_ai;" xmlns:graph="&ns_graphs;"
	 xmlns="http://www.w3.org/2000/svg" xmlns:xlink="http://www.w3.org/1999/xlink" x="0px" y="0px" viewBox="0 0 663 145"
	 style="enable-background:new 0 0 663 145;" xml:space="preserve">
<style type="text/css">
	.st0{fill:#FF4500;}
	.st1{fill:#222222;}
	.st2{display:none;}
	.st3{display:inline;fill:none;stroke:#D7D7D7;stroke-width:0.5;stroke-miterlimit:10;}
</style>
<metadata>
	<sfw  xmlns="&ns_sfw;">
		<slices></slices>
		<sliceSourceBounds  bottomLeftOrigin="true" height="202.9" width="686.9" x="-0.2" y="-0.2"></sliceSourceBounds>
	</sfw>
</metadata>
<g id="Artwork">
	<g>
		<circle class="st0" cx="254.2" cy="38.4" r="10.6"/>
		<path class="st1" d="M102.8,83.6c5.2,0,8.2-3.9,8-7.7c-0.1-2-0.3-3.3-0.5-4.3c-3.2-13.8-14.4-24-27.7-24
			C66.8,47.6,54,61.9,54,79.5s12.8,31.9,28.6,31.9c9.9,0,17-3.6,22.1-9.3c2.5-2.8,2-7.1-1-9.2c-2.5-1.7-5.6-1.1-7.9,0.8
			c-2.2,1.9-6.4,5.7-13.2,5.7c-8,0-14.8-6.9-16.3-16h36.5V83.6z M82.5,59.6c7.2,0,13.4,5.6,15.7,13.3H66.8
			C69.1,65.2,75.3,59.6,82.5,59.6z"/>
		<path class="st1" d="M54.6,53.9c0-3-2.2-5.4-5-5.9c-8.7-1.3-16.9,1.9-21.6,7.8V55c0-3.7-3-6-6-6c-3.3,0-6,2.7-6,6v49
			c0,3.2,2.4,6,5.6,6.2c3.5,0.2,6.4-2.5,6.4-6V78.9c0-11.2,8.4-20.4,20-19.1c0.4,0,0.8,0,1.2,0C52.1,59.6,54.6,57,54.6,53.9z"/>
		<path class="st1" d="M260.2,60.3c0-3.3-2.7-6-6-6s-6,2.7-6,6c0,0.2,0,42,0,43.9c0,3.3,2.7,6,6,6s6-2.7,6-6
			C260.2,102.3,260.2,60.5,260.2,60.3z"/>
		<path class="st1" d="M171,27c0-3.3-2.7-6-6-6l0,0c-3.3,0-6,2.7-6,6v26.7c-4.1-4.1-9.2-6.1-15.3-6.1c-15.8,0-28.6,14.3-28.6,31.9
			s12.8,31.9,28.6,31.9c6.1,0,11.3-2.1,15.4-6.2c0.5,2.8,3,4.9,5.9,4.9c3.3,0,6-2.7,6-6C171,104.2,171,27,171,27z M143.7,99.6
			c-9.2,0-16.6-8.9-16.6-20c0-11,7.4-20,16.6-20s16.6,8.9,16.6,20C160.4,90.6,152.9,99.6,143.7,99.6z"/>
		<path class="st1" d="M233.6,27c0-3.3-2.7-6-6-6l0,0c-3.3,0-6,2.7-6,6v26.7c-4.1-4.1-9.2-6.1-15.3-6.1c-15.8,0-28.6,14.3-28.6,31.9
			s12.8,31.9,28.6,31.9c6.1,0,11.3-2.1,15.4-6.2c0.5,2.8,3,4.9,5.9,4.9c3.3,0,6-2.7,6-6C233.6,104.2,233.6,27,233.6,27z M206.3,99.6
			c-9.2,0-16.6-8.9-16.6-20c0-11,7.4-20,16.6-20s16.6,8.9,16.6,20C222.9,90.6,215.5,99.6,206.3,99.6z"/>
		<path class="st1" d="M290.6,104.2V59.6h5.3c2.8,0,5.3-2.1,5.5-5c0.2-3.1-2.3-5.7-5.3-5.7h-5.5v-8.4c0-3.2-2.4-6-5.6-6.2
			c-3.5-0.2-6.4,2.5-6.4,6V49h-5c-2.8,0-5.3,2.1-5.5,5c-0.2,3.1,2.3,5.7,5.3,5.7h5.1v44.6c0,3.3,2.7,6,6,6l0,0
			C287.9,110.2,290.6,107.5,290.6,104.2z"/>
	</g>
</g>
<g id="Spacing_Guide" class="st2">
	<rect x="-40" y="-34.9" class="st3" width="397.4" height="55.9"/>
	<rect x="-40" y="111.6" class="st3" width="397.4" height="55.9"/>
	<rect x="-40" y="-34.9" class="st3" width="55.9" height="202.4"/>
	<rect x="301.4" y="-34.9" class="st3" width="55.9" height="202.4"/>
</g>
<g>
	<path class="st0" d="M310.3,96.7l25.4-34l-20.8-28.2c-1.4-1.9-2.1-3.8-2.1-5.6c0-2.8,0.9-5.1,2.8-6.8c1.8-1.7,4.2-2.5,7-2.5
		c3.3,0,6.1,1.6,8.3,4.7l15.9,22.6l15.9-22.6c2.2-3.1,5-4.7,8.3-4.7c2.9,0,5.2,0.8,7,2.5c1.8,1.7,2.7,3.9,2.7,6.8c0,2-0.7,3.8-2,5.6
		l-20.8,28.2l25.3,34c1.5,2,2.2,4.1,2.2,6.6c0,2.8-0.9,5-2.7,6.6c-1.8,1.6-4.1,2.4-7,2.4c-3.3,0-5.9-1.4-7.9-4.2l-21-29.2l-21,29.2
		c-2,2.8-4.6,4.2-7.9,4.2c-2.8,0-5.1-0.8-6.9-2.4s-2.8-3.8-2.8-6.5C308.1,100.8,308.8,98.6,310.3,96.7z"/>
	<path class="st1" d="M393.7,125.2V65.6c0-2.2,0.7-4.1,2-5.7c1.3-1.6,3-2.3,5.2-2.3c3.9,0,6.3,2,7.2,6c2.7-4.4,7.2-6.6,13.7-6.6
		c7.4,0,13.2,3,17.5,9.1c3.8,5.4,5.7,11.8,5.7,19.4c0,7.3-2.1,13.5-6.4,18.7c-4.6,5.6-10.4,8.4-17.3,8.4c-4.9,0-9.3-1.7-13.2-5v17.6
		c0,2.3-0.6,4.2-1.9,5.6c-1.3,1.6-3.1,2.3-5.4,2.3c-2.2,0-3.9-0.8-5.3-2.4C394.4,129.3,393.7,127.4,393.7,125.2z M408.1,84.4
		c0,3.9,0.9,7.3,2.6,10.1c2.1,3.3,4.9,4.9,8.6,4.9c3.5,0,6.4-1.6,8.5-4.8c1.8-2.7,2.7-6,2.7-9.7c0-3.6-0.9-6.8-2.8-9.8
		c-2.1-3.3-4.9-4.9-8.4-4.9c-3.6,0-6.5,1.5-8.6,4.6C409,77.4,408.1,80.6,408.1,84.4z"/>
	<path class="st1" d="M450.8,104.3V45.2c0-2.1,0.6-3.9,1.9-5.4s2.9-2.2,5-2.2c2.2,0,3.9,0.7,5.1,2.2s1.8,3.3,1.8,5.5v59.1
		c0,2.2-0.6,4-1.8,5.4c-1.2,1.5-3,2.2-5.2,2.2c-2.1,0-3.8-0.8-5-2.2S450.8,106.4,450.8,104.3z"/>
	<path class="st1" d="M496.2,57c7.5,0,13.8,2.8,18.7,8.4c4.8,5.4,7.1,11.9,7.1,19.5c0,7.7-2.3,14.2-7,19.5
		c-4.9,5.5-11.1,8.3-18.8,8.3c-7.7,0-13.9-2.7-18.8-8.2c-4.7-5.3-7-11.8-7-19.5c0-7.6,2.4-14,7.1-19.4C482.5,59.8,488.7,57,496.2,57
		z M496.2,70.2c-3.7,0-6.6,1.6-8.7,4.8c-1.8,2.7-2.7,6-2.7,9.9c0,3.9,0.9,7.2,2.8,9.9c2.1,3.1,4.9,4.6,8.6,4.6
		c3.6,0,6.5-1.6,8.6-4.7c1.9-2.8,2.8-6.1,2.8-9.8c0-6.3-2.1-10.8-6.2-13.4C500,70.6,498.3,70.2,496.2,70.2z"/>
	<path class="st1" d="M527.9,104V64.8c0-2.1,0.7-3.9,2.1-5.2c1.4-1.3,3.1-2,5.3-2c4.7,0,7,2,7,6h0.2c2.7-4,6-6,10.1-6
		c2.1,0,3.9,0.8,5.2,2.3c1.2,1.4,1.8,3.2,1.8,5.4c0,2-1,3.5-3,4.7c-1.3,0.5-3.1,1.3-5.6,2.3c-2.6,1.1-4.6,2.3-6,3.5
		c-1.8,1.6-2.7,3.6-2.7,6.1V104c0,2.3-0.6,4.2-1.9,5.7c-1.3,1.6-3.1,2.3-5.4,2.3c-2.2,0-3.9-0.8-5.2-2.3
		C528.6,108.1,527.9,106.2,527.9,104z"/>
	<path class="st1" d="M603.7,89.6H573c0.5,3.3,2,5.9,4.5,7.7c2.6,1.8,5.6,2.7,9,2.7c2.2,0,4.5-0.5,6.9-1.6c0.8-0.4,2.9-1.5,6.3-3.3
		c1.1-0.6,2.1-0.9,3.1-0.9c1.6,0,2.9,0.6,4.1,1.9c1.2,1.3,1.8,2.7,1.8,4.3c0,3.7-3.1,6.8-9.4,9.2c-5,2-9.8,3-14.1,3
		c-8,0-14.5-2.6-19.5-7.9c-5-5.2-7.5-11.9-7.5-19.9c0-7.6,2.4-14.1,7.2-19.5c4.9-5.6,11.2-8.4,18.7-8.4c5.4,0,10.3,1.6,14.6,4.7
		c4.3,3.1,7.4,7.2,9.4,12.3c1.2,3,1.8,6.1,1.8,9.2C610,87.5,607.9,89.6,603.7,89.6z M572.7,80h22.9c-0.4-3.4-1.6-6-3.6-8
		c-2-2-4.6-3-7.9-3c-3.2,0-5.8,1-7.8,3.1C574.2,74.2,573,76.8,572.7,80z"/>
	<path class="st1" d="M614.9,104V64.8c0-2.1,0.7-3.9,2.1-5.2c1.4-1.3,3.1-2,5.3-2c4.7,0,7,2,7,6h0.2c2.7-4,6-6,10.1-6
		c2.1,0,3.9,0.8,5.2,2.3c1.2,1.4,1.8,3.2,1.8,5.4c0,2-1,3.5-3,4.7c-1.3,0.5-3.1,1.3-5.6,2.3c-2.6,1.1-4.6,2.3-6,3.5
		c-1.8,1.6-2.7,3.6-2.7,6.1V104c0,2.3-0.6,4.2-1.9,5.7c-1.3,1.6-3.1,2.3-5.4,2.3c-2.2,0-3.9-0.8-5.2-2.3
		C615.6,108.1,614.9,106.2,614.9,104z"/>
</g>
</svg>
